<mxfile host="app.diagrams.net" modified="2023-11-05T20:35:56.181Z" agent="Mozilla/5.0 (Windows NT 10.0; Win64; x64) AppleWebKit/537.36 (KHTML, like Gecko) Chrome/119.0.0.0 Safari/537.36 Edg/119.0.0.0" etag="aSgCamI_l2rCU1wakTWq" version="22.0.8" type="github">
  <diagram id="R2lEEEUBdFMjLlhIrx00" name="Page-1">
    <mxGraphModel dx="792" dy="449" grid="1" gridSize="10" guides="1" tooltips="1" connect="1" arrows="1" fold="1" page="1" pageScale="1" pageWidth="850" pageHeight="1100" background="none" math="0" shadow="0" extFonts="Permanent Marker^https://fonts.googleapis.com/css?family=Permanent+Marker">
      <root>
        <mxCell id="0" />
        <mxCell id="1" parent="0" />
        <mxCell id="Mix9vg5FoqOxD5QC8FNS-23" value="" style="group" vertex="1" connectable="0" parent="1">
          <mxGeometry x="150" y="180" width="120" height="240" as="geometry" />
        </mxCell>
        <mxCell id="Mix9vg5FoqOxD5QC8FNS-2" value="User&lt;br&gt;" style="whiteSpace=wrap;html=1;align=center;" vertex="1" parent="Mix9vg5FoqOxD5QC8FNS-23">
          <mxGeometry x="10" width="100" height="40" as="geometry" />
        </mxCell>
        <mxCell id="Mix9vg5FoqOxD5QC8FNS-10" value="Profiles&lt;br&gt;" style="whiteSpace=wrap;html=1;align=center;" vertex="1" parent="Mix9vg5FoqOxD5QC8FNS-23">
          <mxGeometry x="10" y="200" width="100" height="40" as="geometry" />
        </mxCell>
        <mxCell id="Mix9vg5FoqOxD5QC8FNS-21" value="" style="fontSize=12;html=1;endArrow=ERzeroToMany;startArrow=ERmandOne;rounded=0;entryX=0.5;entryY=0;entryDx=0;entryDy=0;exitX=0.5;exitY=1;exitDx=0;exitDy=0;" edge="1" parent="Mix9vg5FoqOxD5QC8FNS-23" source="Mix9vg5FoqOxD5QC8FNS-2" target="Mix9vg5FoqOxD5QC8FNS-10">
          <mxGeometry width="100" height="100" relative="1" as="geometry">
            <mxPoint x="220" y="70" as="sourcePoint" />
            <mxPoint x="260" y="80" as="targetPoint" />
          </mxGeometry>
        </mxCell>
        <mxCell id="Mix9vg5FoqOxD5QC8FNS-15" value="" style="shape=rhombus;perimeter=rhombusPerimeter;whiteSpace=wrap;html=1;align=center;" vertex="1" parent="Mix9vg5FoqOxD5QC8FNS-23">
          <mxGeometry y="90" width="120" height="60" as="geometry" />
        </mxCell>
        <mxCell id="Mix9vg5FoqOxD5QC8FNS-26" value="UserID" style="ellipse;whiteSpace=wrap;html=1;align=center;fontStyle=4;" vertex="1" parent="1">
          <mxGeometry x="30" y="110" width="100" height="40" as="geometry" />
        </mxCell>
        <mxCell id="Mix9vg5FoqOxD5QC8FNS-30" style="edgeStyle=orthogonalEdgeStyle;rounded=0;orthogonalLoop=1;jettySize=auto;html=1;entryX=0.5;entryY=1;entryDx=0;entryDy=0;" edge="1" parent="1" source="Mix9vg5FoqOxD5QC8FNS-2" target="Mix9vg5FoqOxD5QC8FNS-26">
          <mxGeometry relative="1" as="geometry" />
        </mxCell>
        <mxCell id="Mix9vg5FoqOxD5QC8FNS-32" value="Email" style="ellipse;whiteSpace=wrap;html=1;align=center;" vertex="1" parent="1">
          <mxGeometry x="130" y="80" width="100" height="40" as="geometry" />
        </mxCell>
        <mxCell id="Mix9vg5FoqOxD5QC8FNS-33" value="Password" style="ellipse;whiteSpace=wrap;html=1;align=center;" vertex="1" parent="1">
          <mxGeometry x="240" y="90" width="100" height="40" as="geometry" />
        </mxCell>
        <mxCell id="Mix9vg5FoqOxD5QC8FNS-37" style="edgeStyle=orthogonalEdgeStyle;rounded=0;orthogonalLoop=1;jettySize=auto;html=1;exitX=0.75;exitY=0;exitDx=0;exitDy=0;entryX=0.5;entryY=1;entryDx=0;entryDy=0;" edge="1" parent="1" source="Mix9vg5FoqOxD5QC8FNS-2" target="Mix9vg5FoqOxD5QC8FNS-33">
          <mxGeometry relative="1" as="geometry" />
        </mxCell>
        <mxCell id="Mix9vg5FoqOxD5QC8FNS-38" style="edgeStyle=orthogonalEdgeStyle;rounded=0;orthogonalLoop=1;jettySize=auto;html=1;exitX=0.2;exitY=0;exitDx=0;exitDy=0;entryX=0.5;entryY=1;entryDx=0;entryDy=0;exitPerimeter=0;" edge="1" parent="1" source="Mix9vg5FoqOxD5QC8FNS-2" target="Mix9vg5FoqOxD5QC8FNS-32">
          <mxGeometry relative="1" as="geometry" />
        </mxCell>
        <mxCell id="Mix9vg5FoqOxD5QC8FNS-46" style="edgeStyle=orthogonalEdgeStyle;rounded=0;orthogonalLoop=1;jettySize=auto;html=1;exitX=0.5;exitY=1;exitDx=0;exitDy=0;entryX=1;entryY=0;entryDx=0;entryDy=0;" edge="1" parent="1" source="Mix9vg5FoqOxD5QC8FNS-39" target="Mix9vg5FoqOxD5QC8FNS-42">
          <mxGeometry relative="1" as="geometry" />
        </mxCell>
        <mxCell id="Mix9vg5FoqOxD5QC8FNS-47" style="edgeStyle=orthogonalEdgeStyle;rounded=0;orthogonalLoop=1;jettySize=auto;html=1;exitX=0.5;exitY=1;exitDx=0;exitDy=0;entryX=0;entryY=0;entryDx=0;entryDy=0;" edge="1" parent="1" source="Mix9vg5FoqOxD5QC8FNS-39" target="Mix9vg5FoqOxD5QC8FNS-43">
          <mxGeometry relative="1" as="geometry" />
        </mxCell>
        <mxCell id="Mix9vg5FoqOxD5QC8FNS-39" value="ProfileName" style="ellipse;whiteSpace=wrap;html=1;align=center;fontStyle=4;" vertex="1" parent="1">
          <mxGeometry x="100" y="440" width="100" height="40" as="geometry" />
        </mxCell>
        <mxCell id="Mix9vg5FoqOxD5QC8FNS-41" value="Web Adress&lt;br&gt;" style="ellipse;whiteSpace=wrap;html=1;align=center;" vertex="1" parent="1">
          <mxGeometry x="220" y="440" width="100" height="40" as="geometry" />
        </mxCell>
        <mxCell id="Mix9vg5FoqOxD5QC8FNS-42" value="User Name" style="ellipse;whiteSpace=wrap;html=1;align=center;" vertex="1" parent="1">
          <mxGeometry x="40" y="510" width="100" height="40" as="geometry" />
        </mxCell>
        <mxCell id="Mix9vg5FoqOxD5QC8FNS-43" value="Password" style="ellipse;whiteSpace=wrap;html=1;align=center;" vertex="1" parent="1">
          <mxGeometry x="160" y="510" width="100" height="40" as="geometry" />
        </mxCell>
        <mxCell id="Mix9vg5FoqOxD5QC8FNS-48" style="rounded=0;orthogonalLoop=1;jettySize=auto;html=1;exitX=0.25;exitY=1;exitDx=0;exitDy=0;" edge="1" parent="1" source="Mix9vg5FoqOxD5QC8FNS-10" target="Mix9vg5FoqOxD5QC8FNS-39">
          <mxGeometry relative="1" as="geometry" />
        </mxCell>
        <mxCell id="Mix9vg5FoqOxD5QC8FNS-49" style="rounded=0;orthogonalLoop=1;jettySize=auto;html=1;exitX=0.75;exitY=1;exitDx=0;exitDy=0;" edge="1" parent="1" source="Mix9vg5FoqOxD5QC8FNS-10" target="Mix9vg5FoqOxD5QC8FNS-41">
          <mxGeometry relative="1" as="geometry" />
        </mxCell>
      </root>
    </mxGraphModel>
  </diagram>
</mxfile>
